<?xml version="1.0" encoding="UTF-8"?>
<!DOCTYPE svg PUBLIC "-//W3C//DTD SVG 1.1//EN" "http://www.w3.org/Graphics/SVG/1.1/DTD/svg11.dtd">
<svg xmlns="http://www.w3.org/2000/svg" version="1.1" width="1000px" height="560px" style="shape-rendering:geometricPrecision; text-rendering:geometricPrecision; image-rendering:optimizeQuality; fill-rule:evenodd; clip-rule:evenodd" xmlns:xlink="http://www.w3.org/1999/xlink">
<g><path style="opacity:1" fill="#fefefe" d="M -0.5,-0.5 C 332.833,-0.5 666.167,-0.5 999.5,-0.5C 999.5,186.167 999.5,372.833 999.5,559.5C 666.167,559.5 332.833,559.5 -0.5,559.5C -0.5,372.833 -0.5,186.167 -0.5,-0.5 Z"/></g>
<g><path style="opacity:1" fill="#2c2c2c" d="M 224.5,134.5 C 216.5,134.5 208.5,134.5 200.5,134.5C 200.5,136.167 200.5,137.833 200.5,139.5C 199.539,137.735 199.205,135.735 199.5,133.5C 208.017,133.174 216.35,133.507 224.5,134.5 Z"/></g>
<g><path style="opacity:1" fill="#0e0e0e" d="M 472.5,133.5 C 478.024,132.898 483.19,133.898 488,136.5C 488.723,139.125 487.723,140.792 485,141.5C 476.321,136.963 471.155,139.463 469.5,149C 469.478,155.142 472.478,158.642 478.5,159.5C 481.001,158.756 483.334,157.923 485.5,157C 489.583,159.86 489.25,162.193 484.5,164C 468.03,167.2 460.863,160.367 463,143.5C 465.022,138.98 468.189,135.647 472.5,133.5 Z"/></g>
<g><path style="opacity:1" fill="#0f0f0f" d="M 496.5,133.5 C 501.006,133.148 505.339,133.815 509.5,135.5C 510.996,138.175 510.329,140.175 507.5,141.5C 504.792,139.564 501.792,139.064 498.5,140C 497.14,141.938 497.473,143.604 499.5,145C 510.981,146.467 514.148,152.3 509,162.5C 502.33,166.876 496.163,166.376 490.5,161C 491.628,155.932 493.961,155.266 497.5,159C 503.34,160.917 505.34,159.084 503.5,153.5C 490.326,150.461 487.992,143.795 496.5,133.5 Z"/></g>
<g><path style="opacity:1" fill="#101010" d="M 520.5,133.5 C 525.655,132.89 530.322,134.056 534.5,137C 533.687,138.803 532.52,140.303 531,141.5C 528.114,139.775 524.948,139.108 521.5,139.5C 521.215,141.288 521.548,142.955 522.5,144.5C 526.735,145.847 530.568,147.847 534,150.5C 535.907,161.926 531.074,166.76 519.5,165C 517.126,164.152 515.126,162.819 513.5,161C 514.628,155.932 516.961,155.266 520.5,159C 526.34,160.917 528.34,159.084 526.5,153.5C 523.461,152.431 520.461,151.265 517.5,150C 512.764,143.359 513.764,137.859 520.5,133.5 Z"/></g>
<g><path style="opacity:1" fill="#050505" d="M 169.5,133.5 C 171.833,133.5 174.167,133.5 176.5,133.5C 176.5,137.833 176.5,142.167 176.5,146.5C 180.833,146.5 185.167,146.5 189.5,146.5C 189.5,142.167 189.5,137.833 189.5,133.5C 191.833,133.5 194.167,133.5 196.5,133.5C 196.5,143.833 196.5,154.167 196.5,164.5C 194.167,164.5 191.833,164.5 189.5,164.5C 189.5,160.167 189.5,155.833 189.5,151.5C 185.167,151.5 180.833,151.5 176.5,151.5C 176.5,155.833 176.5,160.167 176.5,164.5C 174.167,164.5 171.833,164.5 169.5,164.5C 169.5,154.167 169.5,143.833 169.5,133.5 Z"/></g>
<g><path style="opacity:1" fill="#020202" d="M 224.5,134.5 C 224.5,136.167 224.5,137.833 224.5,139.5C 221.833,139.5 219.167,139.5 216.5,139.5C 215.507,147.65 215.174,155.983 215.5,164.5C 213.167,164.5 210.833,164.5 208.5,164.5C 208.826,155.983 208.493,147.65 207.5,139.5C 205.167,139.5 202.833,139.5 200.5,139.5C 200.5,137.833 200.5,136.167 200.5,134.5C 208.5,134.5 216.5,134.5 224.5,134.5 Z"/></g>
<g><path style="opacity:1" fill="#090909" d="M 274.5,133.5 C 274.5,142.167 274.5,150.833 274.5,159.5C 278.5,159.5 282.5,159.5 286.5,159.5C 286.5,161.167 286.5,162.833 286.5,164.5C 280.167,164.5 273.833,164.5 267.5,164.5C 267.5,154.167 267.5,143.833 267.5,133.5C 269.833,133.5 272.167,133.5 274.5,133.5 Z"/></g>
<g><path style="opacity:1" fill="#989898" d="M 274.5,133.5 C 275.493,141.65 275.826,149.983 275.5,158.5C 279.371,158.185 283.038,158.518 286.5,159.5C 282.5,159.5 278.5,159.5 274.5,159.5C 274.5,150.833 274.5,142.167 274.5,133.5 Z"/></g>
<g><path style="opacity:1" fill="#0f0f0f" d="M 256.5,164.5 C 256.83,158.132 256.496,151.798 255.5,145.5C 254.702,145.957 254.369,146.624 254.5,147.5C 252.347,151.807 250.18,156.14 248,160.5C 246,161.833 244,161.833 242,160.5C 239.82,156.14 237.653,151.807 235.5,147.5C 235.217,146.711 234.717,146.044 234,145.5C 233.5,151.825 233.334,158.158 233.5,164.5C 231.5,164.5 229.5,164.5 227.5,164.5C 227.5,154.167 227.5,143.833 227.5,133.5C 230.119,133.232 232.619,133.565 235,134.5C 238.064,140.96 241.397,147.293 245,153.5C 248.118,146.761 251.618,140.261 255.5,134C 257.81,133.503 260.143,133.337 262.5,133.5C 262.5,143.833 262.5,154.167 262.5,164.5C 260.5,164.5 258.5,164.5 256.5,164.5 Z"/></g>
<g><path style="opacity:1" fill="#bfbfbf" d="M 207.5,139.5 C 208.493,147.65 208.826,155.983 208.5,164.5C 210.833,164.5 213.167,164.5 215.5,164.5C 215.174,155.983 215.507,147.65 216.5,139.5C 216.5,148.167 216.5,156.833 216.5,165.5C 213.5,165.5 210.5,165.5 207.5,165.5C 207.5,156.833 207.5,148.167 207.5,139.5 Z"/></g>
<g><path style="opacity:1" fill="#0f0f0f" d="M 777.5,133.5 C 782.655,132.89 787.322,134.056 791.5,137C 790.695,138.972 789.361,140.472 787.5,141.5C 784.532,139.338 781.366,139.005 778,140.5C 777.316,141.784 777.483,142.951 778.5,144C 782.437,145.644 786.27,147.477 790,149.5C 793.316,161.343 788.816,166.509 776.5,165C 774.126,164.152 772.126,162.819 770.5,161C 771.628,155.932 773.961,155.266 777.5,159C 783.34,160.917 785.34,159.084 783.5,153.5C 779.131,152.457 775.298,150.457 772,147.5C 770.025,141.177 771.858,136.51 777.5,133.5 Z"/></g>
<g><path style="opacity:1" fill="#1e1e1e" d="M 759.5,133.5 C 762.167,133.5 764.833,133.5 767.5,133.5C 767.91,142.25 767.41,150.916 766,159.5C 762.634,164.686 757.801,166.686 751.5,165.5C 751.5,163.5 751.5,161.5 751.5,159.5C 754.365,159.945 756.865,159.278 759,157.5C 759.5,149.507 759.666,141.507 759.5,133.5 Z"/></g>
<g><path style="opacity:1" fill="#b7b7b7" d="M 169.5,133.5 C 169.5,143.833 169.5,154.167 169.5,164.5C 171.833,164.5 174.167,164.5 176.5,164.5C 176.5,160.167 176.5,155.833 176.5,151.5C 180.833,151.5 185.167,151.5 189.5,151.5C 189.5,155.833 189.5,160.167 189.5,164.5C 191.833,164.5 194.167,164.5 196.5,164.5C 194.052,165.473 191.385,165.806 188.5,165.5C 188.5,161.167 188.5,156.833 188.5,152.5C 184.833,152.5 181.167,152.5 177.5,152.5C 177.5,156.833 177.5,161.167 177.5,165.5C 174.5,165.5 171.5,165.5 168.5,165.5C 168.172,154.654 168.506,143.987 169.5,133.5 Z"/></g>
<g><path style="opacity:1" fill="#a9a9a9" d="M 235.5,147.5 C 234.833,153.167 234.167,158.833 233.5,164.5C 233.334,158.158 233.5,151.825 234,145.5C 234.717,146.044 235.217,146.711 235.5,147.5 Z"/></g>
<g><path style="opacity:1" fill="#969696" d="M 256.5,164.5 C 255.833,158.833 255.167,153.167 254.5,147.5C 254.369,146.624 254.702,145.957 255.5,145.5C 256.496,151.798 256.83,158.132 256.5,164.5 Z"/></g>
<g><path style="opacity:1" fill="#fbefd9" d="M 664.5,184.5 C 736.331,183.501 808.331,183.167 880.5,183.5C 880.784,185.415 880.451,187.081 879.5,188.5C 879.5,187.167 879.5,185.833 879.5,184.5C 807.833,184.5 736.167,184.5 664.5,184.5 Z"/></g>
<g><path style="opacity:1" fill="#fe3436" d="M 204.5,184.5 C 202.958,185.163 201.291,185.83 199.5,186.5C 200.376,187.251 201.376,187.751 202.5,188C 199.534,188.895 196.867,188.395 194.5,186.5C 192.954,187.212 191.954,188.378 191.5,190C 192.783,191.136 193.783,192.469 194.5,194C 191.608,198.79 191.942,203.29 195.5,207.5C 200.861,209.459 205.028,208.125 208,203.5C 208.914,204.654 209.747,204.487 210.5,203C 209.289,201.887 209.289,200.72 210.5,199.5C 215.601,198.066 218.601,194.732 219.5,189.5C 220.833,188.167 222.167,188.167 223.5,189.5C 224.696,189.154 224.696,188.654 223.5,188C 225.788,187.178 228.122,186.511 230.5,186C 229.263,185.768 228.263,185.268 227.5,184.5C 263.167,184.5 298.833,184.5 334.5,184.5C 328.331,258.525 321.831,332.525 315,406.5C 285.397,413.288 255.731,419.955 226,426.5C 196.888,420.212 167.888,413.545 139,406.5C 132.168,332.521 125.668,258.521 119.5,184.5C 147.833,184.5 176.167,184.5 204.5,184.5 Z"/></g>
<g><path style="opacity:1" fill="#fc3a3d" d="M 204.5,184.5 C 212.167,184.5 219.833,184.5 227.5,184.5C 228.263,185.268 229.263,185.768 230.5,186C 228.122,186.511 225.788,187.178 223.5,188C 224.696,188.654 224.696,189.154 223.5,189.5C 222.167,188.167 220.833,188.167 219.5,189.5C 218.601,194.732 215.601,198.066 210.5,199.5C 209.289,200.72 209.289,201.887 210.5,203C 209.747,204.487 208.914,204.654 208,203.5C 205.028,208.125 200.861,209.459 195.5,207.5C 191.942,203.29 191.608,198.79 194.5,194C 193.783,192.469 192.783,191.136 191.5,190C 191.954,188.378 192.954,187.212 194.5,186.5C 196.867,188.395 199.534,188.895 202.5,188C 201.376,187.751 200.376,187.251 199.5,186.5C 201.291,185.83 202.958,185.163 204.5,184.5 Z"/></g>
<g><path style="opacity:1" fill="#f99c29" d="M 664.5,184.5 C 736.167,184.5 807.833,184.5 879.5,184.5C 879.5,185.833 879.5,187.167 879.5,188.5C 875.398,234.824 871.398,281.158 867.5,327.5C 866.318,333.301 865.652,339.301 865.5,345.5C 864.028,366.099 862.028,386.599 859.5,407C 830.523,413.604 801.523,420.104 772.5,426.5C 743.142,420.107 713.809,413.607 684.5,407C 677.018,332.958 670.352,258.791 664.5,184.5 Z"/></g>
<g><path style="opacity:1" fill="#fdb737" d="M 867.5,194.5 C 835.833,194.5 804.167,194.5 772.5,194.5C 772.5,267.167 772.5,339.833 772.5,412.5C 773.5,412.5 774.5,412.5 775.5,412.5C 774.432,413.434 773.099,413.768 771.5,413.5C 771.5,340.167 771.5,266.833 771.5,193.5C 803.671,193.168 835.671,193.502 867.5,194.5 Z"/></g>
<g><path style="opacity:1" fill="#f6f5f3" d="M 734.5,222.5 C 743.5,222.5 752.5,222.5 761.5,222.5C 761.5,280.167 761.5,337.833 761.5,395.5C 742.5,391.5 723.5,387.5 704.5,383.5C 703.894,371.496 703.227,359.496 702.5,347.5C 709.235,349.022 715.901,350.855 722.5,353C 724.192,354.401 724.859,356.234 724.5,358.5C 727.667,358.4 730.667,359.067 733.5,360.5C 734.5,314.505 734.833,268.505 734.5,222.5 Z"/></g>
<g><path style="opacity:1" fill="#fefefe" d="M 226.5,226.5 C 247.833,226.5 269.167,226.5 290.5,226.5C 289.928,235.177 289.261,243.843 288.5,252.5C 257.167,252.5 225.833,252.5 194.5,252.5C 205.993,251.669 217.659,251.169 229.5,251C 228.5,250.667 227.5,250.333 226.5,250C 226.511,242.107 226.511,234.274 226.5,226.5 Z"/></g>
<g><path style="opacity:1" fill="#f7f6f6" d="M 164.5,226.5 C 185.167,226.5 205.833,226.5 226.5,226.5C 226.511,234.274 226.511,242.107 226.5,250C 227.5,250.333 228.5,250.667 229.5,251C 217.659,251.169 205.993,251.669 194.5,252.5C 194.263,253.791 194.596,254.791 195.5,255.5C 196.566,268.492 197.566,281.492 198.5,294.5C 198.5,295.167 198.833,295.5 199.5,295.5C 208.652,296.494 217.985,296.827 227.5,296.5C 226.935,300.799 226.601,305.132 226.5,309.5C 226.547,313.267 227.214,316.767 228.5,320C 210.503,320.5 192.503,320.667 174.5,320.5C 173.997,315.5 173.664,315.833 173.5,321.5C 173.167,321.5 172.833,321.5 172.5,321.5C 170.434,289.775 167.767,258.109 164.5,226.5 Z"/></g>
<g><path style="opacity:1" fill="#feca40" d="M 867.5,194.5 C 862.287,260.906 856.287,327.239 849.5,393.5C 847.531,396.011 844.864,397.511 841.5,398C 819.556,403.142 797.556,407.975 775.5,412.5C 774.5,412.5 773.5,412.5 772.5,412.5C 772.5,339.833 772.5,267.167 772.5,194.5C 804.167,194.5 835.833,194.5 867.5,194.5 Z"/></g>
<g><path style="opacity:1" fill="#fefefc" d="M 847.5,239.5 C 846.523,242.287 846.19,245.287 846.5,248.5C 834.322,248.172 822.322,248.505 810.5,249.5C 809.504,262.99 809.171,276.656 809.5,290.5C 820.153,289.667 830.82,289.001 841.5,288.5C 838.992,319.894 835.992,351.227 832.5,382.5C 815.61,386.264 798.776,390.264 782,394.5C 781.5,385.84 781.334,377.173 781.5,368.5C 789.648,367.118 797.648,365.118 805.5,362.5C 808.005,349.282 809.672,335.948 810.5,322.5C 801.249,322.182 792.083,322.515 783,323.5C 782.795,289.834 782.961,256.167 783.5,222.5C 805.167,222.5 826.833,222.5 848.5,222.5C 848.24,228.172 847.907,233.839 847.5,239.5 Z"/></g>
<g><path style="opacity:1" fill="#fde397" d="M 847.5,239.5 C 847.5,242.833 847.5,246.167 847.5,249.5C 835.167,249.5 822.833,249.5 810.5,249.5C 822.322,248.505 834.322,248.172 846.5,248.5C 846.19,245.287 846.523,242.287 847.5,239.5 Z"/></g>
<g><path style="opacity:1" fill="#fc9994" d="M 194.5,252.5 C 225.833,252.5 257.167,252.5 288.5,252.5C 288.5,253.167 288.167,253.5 287.5,253.5C 267.167,253.5 246.833,253.5 226.5,253.5C 215.779,252.858 205.446,253.525 195.5,255.5C 194.596,254.791 194.263,253.791 194.5,252.5 Z"/></g>
<g><path style="opacity:1" fill="#fe3235" d="M 226.5,253.5 C 226.5,267.167 226.5,280.833 226.5,294.5C 217.167,294.5 207.833,294.5 198.5,294.5C 197.566,281.492 196.566,268.492 195.5,255.5C 205.446,253.525 215.779,252.858 226.5,253.5 Z"/></g>
<g><path style="opacity:1" fill="#fd7a63" d="M 227.5,386.5 C 244.361,382.562 261.194,378.562 278,374.5C 279.716,349.122 281.883,323.789 284.5,298.5C 285.434,297.432 285.768,296.099 285.5,294.5C 280.167,294.5 274.833,294.5 269.5,294.5C 255.677,293.504 241.677,293.171 227.5,293.5C 227.5,280.5 227.5,267.5 227.5,254.5C 247.674,254.83 267.674,254.497 287.5,253.5C 288.167,253.5 288.5,253.167 288.5,252.5C 289.261,243.843 289.928,235.177 290.5,226.5C 269.167,226.5 247.833,226.5 226.5,226.5C 205.833,226.5 185.167,226.5 164.5,226.5C 184.993,225.503 205.66,225.169 226.5,225.5C 226.5,215.5 226.5,205.5 226.5,195.5C 258.5,195.5 290.5,195.5 322.5,195.5C 316.336,262.789 310.503,330.122 305,397.5C 279.299,403.74 253.466,409.407 227.5,414.5C 227.5,405.167 227.5,395.833 227.5,386.5 Z"/></g>
<g><path style="opacity:1" fill="#fd6a53" d="M 226.5,253.5 C 246.833,253.5 267.167,253.5 287.5,253.5C 267.674,254.497 247.674,254.83 227.5,254.5C 227.5,267.5 227.5,280.5 227.5,293.5C 241.677,293.171 255.677,293.504 269.5,294.5C 255.167,294.5 240.833,294.5 226.5,294.5C 226.5,280.833 226.5,267.167 226.5,253.5 Z"/></g>
<g><path style="opacity:1" fill="#fbaea5" d="M 198.5,294.5 C 207.833,294.5 217.167,294.5 226.5,294.5C 240.833,294.5 255.167,294.5 269.5,294.5C 274.833,294.5 280.167,294.5 285.5,294.5C 285.768,296.099 285.434,297.432 284.5,298.5C 284.5,297.5 284.5,296.5 284.5,295.5C 256.167,295.5 227.833,295.5 199.5,295.5C 198.833,295.5 198.5,295.167 198.5,294.5 Z"/></g>
<g><path style="opacity:1" fill="#fcfbfa" d="M 199.5,295.5 C 227.833,295.5 256.167,295.5 284.5,295.5C 284.5,296.5 284.5,297.5 284.5,298.5C 281.883,323.789 279.716,349.122 278,374.5C 261.194,378.562 244.361,382.562 227.5,386.5C 211.05,382.762 194.716,378.762 178.5,374.5C 176.811,363.201 175.477,351.867 174.5,340.5C 183.81,339.502 193.143,339.168 202.5,339.5C 203.229,344.13 203.563,348.797 203.5,353.5C 211.2,355.04 218.867,356.707 226.5,358.5C 226.833,358.5 227.167,358.5 227.5,358.5C 235.501,356.833 243.501,355.166 251.5,353.5C 252.362,342.85 253.028,332.184 253.5,321.5C 244.833,321.5 236.167,321.5 227.5,321.5C 209.5,321.5 191.5,321.5 173.5,321.5C 173.664,315.833 173.997,315.5 174.5,320.5C 192.503,320.667 210.503,320.5 228.5,320C 227.214,316.767 226.547,313.267 226.5,309.5C 226.601,305.132 226.935,300.799 227.5,296.5C 217.985,296.827 208.652,296.494 199.5,295.5 Z"/></g>
<g><path style="opacity:1" fill="#047db7" d="M 390.5,184.5 C 462.5,184.5 534.5,184.5 606.5,184.5C 599.89,258.481 593.39,332.481 587,406.5C 557.58,413.323 528.08,419.989 498.5,426.5C 469.223,419.847 439.89,413.514 410.5,407.5C 404.193,333.127 397.527,258.793 390.5,184.5 Z"/></g>
<g><path style="opacity:1" fill="#029ce6" d="M 498.5,249.5 C 511.876,248.852 524.876,249.519 537.5,251.5C 536.653,263.848 535.653,276.182 534.5,288.5C 522.5,288.5 510.5,288.5 498.5,288.5C 498.5,275.5 498.5,262.5 498.5,249.5 Z"/></g>
<g><path style="opacity:1" fill="#7dc0df" d="M 435.5,248.5 C 469.833,248.5 504.167,248.5 538.5,248.5C 538.737,249.791 538.404,250.791 537.5,251.5C 524.876,249.519 511.876,248.852 498.5,249.5C 477.327,249.831 456.327,249.497 435.5,248.5 Z"/></g>
<g><path style="opacity:1" fill="#fafbfb" d="M 567.5,222.5 C 562.582,271.935 557.915,321.435 553.5,371C 553.095,371.945 552.428,372.612 551.5,373C 533.693,376.727 516.026,380.893 498.5,385.5C 481.226,381.478 463.893,377.645 446.5,374C 445.533,361.503 444.2,349.003 442.5,336.5C 450.786,338.078 459.119,339.411 467.5,340.5C 468.127,345.141 468.46,349.807 468.5,354.5C 478.177,356.335 487.843,358.335 497.5,360.5C 498.416,360.457 499.083,360.124 499.5,359.5C 509.484,357.977 519.318,355.977 529,353.5C 529.614,343.471 530.447,333.471 531.5,323.5C 532.477,320.713 532.81,317.713 532.5,314.5C 510.5,314.5 488.5,314.5 466.5,314.5C 466.5,305.833 466.5,297.167 466.5,288.5C 477.167,288.5 487.833,288.5 498.5,288.5C 510.5,288.5 522.5,288.5 534.5,288.5C 535.653,276.182 536.653,263.848 537.5,251.5C 538.404,250.791 538.737,249.791 538.5,248.5C 504.167,248.5 469.833,248.5 435.5,248.5C 434.585,242.669 433.918,236.669 433.5,230.5C 433.5,227.833 433.5,225.167 433.5,222.5C 478.167,222.5 522.833,222.5 567.5,222.5 Z"/></g>
<g><path style="opacity:1" fill="#44a6d3" d="M 498.5,221.5 C 521.673,221.169 544.673,221.502 567.5,222.5C 522.833,222.5 478.167,222.5 433.5,222.5C 433.5,225.167 433.5,227.833 433.5,230.5C 432.523,227.713 432.19,224.713 432.5,221.5C 454.5,221.5 476.5,221.5 498.5,221.5 Z"/></g>
<g><path style="opacity:1" fill="#069ce5" d="M 498.5,385.5 C 516.026,380.893 533.693,376.727 551.5,373C 552.428,372.612 553.095,371.945 553.5,371C 557.915,321.435 562.582,271.935 567.5,222.5C 544.673,221.502 521.673,221.169 498.5,221.5C 498.5,212.833 498.5,204.167 498.5,195.5C 530.167,195.5 561.833,195.5 593.5,195.5C 587.994,262.879 581.994,330.212 575.5,397.5C 550.004,403.957 524.338,409.624 498.5,414.5C 498.5,404.833 498.5,395.167 498.5,385.5 Z"/></g>
<g><path style="opacity:1" fill="#b8d9ea" d="M 466.5,288.5 C 466.5,297.167 466.5,305.833 466.5,314.5C 488.5,314.5 510.5,314.5 532.5,314.5C 532.81,317.713 532.477,320.713 531.5,323.5C 531.5,320.833 531.5,318.167 531.5,315.5C 520.5,315.5 509.5,315.5 498.5,315.5C 487.5,315.5 476.5,315.5 465.5,315.5C 465.173,306.318 465.507,297.318 466.5,288.5 Z"/></g>
<g><path style="opacity:1" fill="#069ce6" d="M 498.5,315.5 C 509.5,315.5 520.5,315.5 531.5,315.5C 531.5,318.167 531.5,320.833 531.5,323.5C 530.447,333.471 529.614,343.471 529,353.5C 519.318,355.977 509.484,357.977 499.5,359.5C 498.504,345.01 498.171,330.343 498.5,315.5 Z"/></g>
<g><path style="opacity:1" fill="#585858" d="M 21.5,331.5 C 19.7837,329.975 17.7837,328.975 15.5,328.5C 15.5,327.167 15.5,325.833 15.5,324.5C 19.9359,324.058 24.2693,324.058 28.5,324.5C 28.5,325.5 28.5,326.5 28.5,327.5C 27.5,327.5 26.5,327.5 25.5,327.5C 25.5,329.167 25.5,330.833 25.5,332.5C 24.0413,332.567 22.7079,332.234 21.5,331.5 Z"/></g>
<g><path style="opacity:1" fill="#dedede" d="M 19.5,328.5 C 20.5676,327.566 21.901,327.232 23.5,327.5C 23.6495,328.552 23.4828,329.552 23,330.5C 21.8873,329.695 20.7206,329.028 19.5,328.5 Z"/></g>
<g><path style="opacity:1" fill="#fa7c66" d="M 227.5,321.5 C 236.167,321.5 244.833,321.5 253.5,321.5C 253.028,332.184 252.362,342.85 251.5,353.5C 243.501,355.166 235.501,356.833 227.5,358.5C 227.5,346.167 227.5,333.833 227.5,321.5 Z"/></g>
<g><path style="opacity:1" fill="#fb605a" d="M 172.5,321.5 C 172.833,321.5 173.167,321.5 173.5,321.5C 191.5,321.5 209.5,321.5 227.5,321.5C 227.5,333.833 227.5,346.167 227.5,358.5C 227.167,358.5 226.833,358.5 226.5,358.5C 226.5,346.5 226.5,334.5 226.5,322.5C 208.326,322.83 190.326,322.497 172.5,321.5 Z"/></g>
<g><path style="opacity:1" fill="#575757" d="M 16.5,342.5 C 14.9139,339.784 15.2472,337.45 17.5,335.5C 18.9305,335.421 20.2638,335.754 21.5,336.5C 25.1715,333.502 27.5048,334.336 28.5,339C 28.5607,340.711 27.8941,342.044 26.5,343C 23.0994,342.577 19.7661,342.411 16.5,342.5 Z"/></g>
<g><path style="opacity:1" fill="#dfdfdf" d="M 18.5,337.5 C 20.0481,337.821 20.7148,338.821 20.5,340.5C 17.7524,340.598 17.0857,339.598 18.5,337.5 Z"/></g>
<g><path style="opacity:1" fill="#dddddd" d="M 22.5,337.5 C 23.8333,337.5 25.1667,337.5 26.5,337.5C 26.7778,339.346 26.1112,340.68 24.5,341.5C 22.8888,340.68 22.2222,339.346 22.5,337.5 Z"/></g>
<g><path style="opacity:1" fill="#feddb4" d="M 867.5,327.5 C 867.724,333.739 867.057,339.739 865.5,345.5C 865.652,339.301 866.318,333.301 867.5,327.5 Z"/></g>
<g><path style="opacity:1" fill="#e1e1e1" d="M 28.5,370.5 C 28.5,371.833 28.5,373.167 28.5,374.5C 29.5,374.5 30.5,374.5 31.5,374.5C 31.3899,386.152 31.3899,397.652 31.5,409C 31.6464,411.034 30.9797,412.701 29.5,414C 29.9437,415.533 30.277,417.033 30.5,418.5C 29.3539,419.719 28.3539,421.052 27.5,422.5C 25.6837,423.735 24.017,423.735 22.5,422.5C 27.3881,422.208 28.0548,421.041 24.5,419C 25.624,418.751 26.624,418.251 27.5,417.5C 26.0521,416.646 24.7187,415.646 23.5,414.5C 22.8333,414.833 22.1667,415.167 21.5,415.5C 20.7348,414.388 19.7348,413.721 18.5,413.5C 16.8212,413.715 15.8212,413.048 15.5,411.5C 14.4095,408.319 14.4095,404.985 15.5,401.5C 16.4232,402.303 17.4232,402.47 18.5,402C 16.9372,399.524 17.6038,398.024 20.5,397.5C 23.0867,398.744 25.4201,400.411 27.5,402.5C 28.8333,399.833 28.8333,397.167 27.5,394.5C 26.7189,395.729 26.2189,397.062 26,398.5C 22.9853,394.364 19.4853,393.697 15.5,396.5C 15.5,394.833 15.5,393.167 15.5,391.5C 17.3059,394.338 18.3059,394.005 18.5,390.5C 21.8984,390.82 25.2317,390.487 28.5,389.5C 24.2172,388.508 19.8839,388.174 15.5,388.5C 15.5,387.167 15.5,385.833 15.5,384.5C 18.1073,386.042 18.7739,385.542 17.5,383C 17.6667,381.5 18.5,380.667 20,380.5C 22.8975,381.563 25.3975,383.23 27.5,385.5C 28.8333,382.833 28.8333,380.167 27.5,377.5C 26.7189,378.729 26.2189,380.062 26,381.5C 23.0899,378.571 19.7566,377.905 16,379.5C 15.51,380.793 15.3433,382.127 15.5,383.5C 13.9463,380.015 14.6129,376.848 17.5,374C 16.9747,373.308 16.3081,372.808 15.5,372.5C 14.3372,367.198 14.1705,361.864 15,356.5C 16.6279,355.038 16.7946,353.372 15.5,351.5C 14.8614,350.903 14.528,350.07 14.5,349C 15.0329,346.774 15.6996,344.607 16.5,342.5C 19.7661,342.411 23.0994,342.577 26.5,343C 27.8941,342.044 28.5607,340.711 28.5,339C 27.5048,334.336 25.1715,333.502 21.5,336.5C 20.2638,335.754 18.9305,335.421 17.5,335.5C 18.6252,334 19.9586,332.667 21.5,331.5C 22.7079,332.234 24.0413,332.567 25.5,332.5C 25.5,330.833 25.5,329.167 25.5,327.5C 26.5,327.5 27.5,327.5 28.5,327.5C 28.5,326.5 28.5,325.5 28.5,324.5C 24.2693,324.058 19.9359,324.058 15.5,324.5C 15.5,325.833 15.5,327.167 15.5,328.5C 14.1888,326.44 14.1888,324.274 15.5,322C 20.8706,321.324 26.2039,321.491 31.5,322.5C 31.9838,325.798 30.9838,328.464 28.5,330.5C 29.5576,333.196 30.5576,335.863 31.5,338.5C 31.5629,340.481 30.8962,342.148 29.5,343.5C 32.123,347.318 32.123,351.151 29.5,355C 31.3575,359.919 32.0242,365.086 31.5,370.5C 30.5,370.5 29.5,370.5 28.5,370.5 Z"/></g>
<g><path style="opacity:1" fill="#4e4e4e" d="M 22.5,356.5 C 27.8155,356.497 29.8155,359.164 28.5,364.5C 27.448,364.649 26.448,364.483 25.5,364C 26.8333,362.333 26.8333,360.667 25.5,359C 24.8333,358.333 24.1667,358.333 23.5,359C 22.9288,360.205 22.2621,361.372 21.5,362.5C 20.6143,361.675 20.281,360.675 20.5,359.5C 19.5,359.5 18.5,359.5 17.5,359.5C 17.2865,361.144 17.6198,362.644 18.5,364C 17.5509,364.617 16.7175,364.451 16,363.5C 14.4876,358.344 16.1542,356.677 21,358.5C 21.7172,357.956 22.2172,357.289 22.5,356.5 Z"/></g>
<g><path style="opacity:1" fill="#4d4d4d" d="M 15.5,351.5 C 15.3217,347.148 17.4883,345.148 22,345.5C 27.0516,345.862 28.8849,348.362 27.5,353C 23.0521,355.34 19.0521,354.84 15.5,351.5 Z"/></g>
<g><path style="opacity:1" fill="#cdcdcd" d="M 19.5,347.5 C 22.3795,347.033 24.7129,347.866 26.5,350C 24.3494,352.365 21.6828,353.031 18.5,352C 17.2568,350.184 17.5901,348.684 19.5,347.5 Z"/></g>
<g><path style="opacity:1" fill="#5e5e5e" d="M 28.5,370.5 C 27.5,370.5 26.5,370.5 25.5,370.5C 25.5,372.167 25.5,373.833 25.5,375.5C 22.1485,374.992 19.1485,373.658 16.5,371.5C 15.5713,370.311 15.238,368.978 15.5,367.5C 19.9359,367.058 24.2693,367.058 28.5,367.5C 28.5,368.5 28.5,369.5 28.5,370.5 Z"/></g>
<g><path style="opacity:1" fill="#dcdcdc" d="M 19.5,371.5 C 20.5676,370.566 21.901,370.232 23.5,370.5C 23.6495,371.552 23.4828,372.552 23,373.5C 21.8873,372.695 20.7206,372.028 19.5,371.5 Z"/></g>
<g><path style="opacity:1" fill="#525252" d="M 15.5,384.5 C 15.5,384.167 15.5,383.833 15.5,383.5C 15.3433,382.127 15.51,380.793 16,379.5C 19.7566,377.905 23.0899,378.571 26,381.5C 26.2189,380.062 26.7189,378.729 27.5,377.5C 28.8333,380.167 28.8333,382.833 27.5,385.5C 25.3975,383.23 22.8975,381.563 20,380.5C 18.5,380.667 17.6667,381.5 17.5,383C 18.7739,385.542 18.1073,386.042 15.5,384.5 Z"/></g>
<g><path style="opacity:1" fill="#4c4c4c" d="M 15.5,388.5 C 19.8839,388.174 24.2172,388.508 28.5,389.5C 25.2317,390.487 21.8984,390.82 18.5,390.5C 18.3059,394.005 17.3059,394.338 15.5,391.5C 15.5,390.5 15.5,389.5 15.5,388.5 Z"/></g>
<g><path style="opacity:1" fill="#535353" d="M 15.5,401.5 C 15.5,399.833 15.5,398.167 15.5,396.5C 19.4853,393.697 22.9853,394.364 26,398.5C 26.2189,397.062 26.7189,395.729 27.5,394.5C 28.8333,397.167 28.8333,399.833 27.5,402.5C 25.4201,400.411 23.0867,398.744 20.5,397.5C 17.6038,398.024 16.9372,399.524 18.5,402C 17.4232,402.47 16.4232,402.303 15.5,401.5 Z"/></g>
<g><path style="opacity:1" fill="#515151" d="M 15.5,411.5 C 14.4919,406.333 16.3252,404.666 21,406.5C 23.3333,403.833 25.6667,403.833 28,406.5C 28.4955,408.473 28.6621,410.473 28.5,412.5C 27.448,412.649 26.448,412.483 25.5,412C 26.8333,410.333 26.8333,408.667 25.5,407C 24.8333,406.333 24.1667,406.333 23.5,407C 22.9288,408.205 22.2621,409.372 21.5,410.5C 20.6143,409.675 20.281,408.675 20.5,407.5C 19.5,407.5 18.5,407.5 17.5,407.5C 17.2865,409.144 17.6198,410.644 18.5,412C 17.4232,412.47 16.4232,412.303 15.5,411.5 Z"/></g>
<g><path style="opacity:1" fill="#5d5d5d" d="M 18.5,413.5 C 19.7348,413.721 20.7348,414.388 21.5,415.5C 22.1667,415.167 22.8333,414.833 23.5,414.5C 24.7187,415.646 26.0521,416.646 27.5,417.5C 26.624,418.251 25.624,418.751 24.5,419C 28.0548,421.041 27.3881,422.208 22.5,422.5C 22.2249,420.242 21.2249,419.908 19.5,421.5C 18.646,420.478 17.646,419.645 16.5,419C 17.3081,418.692 17.9747,418.192 18.5,417.5C 17.5,416.833 16.5,416.167 15.5,415.5C 16.6016,414.824 17.6016,414.158 18.5,413.5 Z"/></g>
<g><path style="opacity:1" fill="#d6d6d6" d="M 32.5,432.5 C 29.7425,431.182 26.5758,430.515 23,430.5C 19.4242,430.515 16.2575,431.182 13.5,432.5C 12.2947,431.328 12.2947,429.995 13.5,428.5C 19.8072,427.336 26.1405,427.169 32.5,428C 33.8009,429.616 33.8009,431.116 32.5,432.5 Z"/></g>
<g><path style="opacity:1" fill="#636363" d="M 32.5,432.5 C 26.1667,432.5 19.8333,432.5 13.5,432.5C 16.2575,431.182 19.4242,430.515 23,430.5C 26.5758,430.515 29.7425,431.182 32.5,432.5 Z"/></g>
<g><path style="opacity:1" fill="#e3e3e3" d="M 17.5,483.5 C 18.552,483.649 19.552,483.483 20.5,483C 21.9557,481.255 23.289,479.422 24.5,477.5C 26.6568,478.966 26.9901,480.8 25.5,483C 26.1667,483.667 26.8333,483.667 27.5,483C 29.6498,477.825 27.9832,475.492 22.5,476C 21.0443,477.745 19.711,479.578 18.5,481.5C 17.3112,479.637 15.9779,477.97 14.5,476.5C 15.2625,475.732 16.2625,475.232 17.5,475C 16.244,474.583 15.5774,473.75 15.5,472.5C 17.143,472.48 18.4763,473.147 19.5,474.5C 22.2123,472.74 25.2123,472.073 28.5,472.5C 28.762,471.022 28.4287,469.689 27.5,468.5C 24.8333,471.167 22.1667,471.167 19.5,468.5C 18.7348,469.612 17.7348,470.279 16.5,470.5C 17.0116,465.033 17.6783,459.367 18.5,453.5C 17.5489,452.081 17.2155,450.415 17.5,448.5C 15.901,448.768 14.5676,448.434 13.5,447.5C 11.4143,443.341 12.7476,441.341 17.5,441.5C 16.9238,435.076 19.2572,433.743 24.5,437.5C 26.7466,436.626 29.0799,436.292 31.5,436.5C 31.6661,442.176 31.4994,447.843 31,453.5C 27.6667,455.5 27.6667,457.5 31,459.5C 32.0362,464.426 31.5362,469.093 29.5,473.5C 31.2982,476.289 31.7982,479.289 31,482.5C 28.5886,485.105 26.0886,485.105 23.5,482.5C 21.6055,484.486 19.6055,484.819 17.5,483.5 Z"/></g>
<g><path style="opacity:1" fill="#505050" d="M 18.5,453.5 C 18.238,452.022 18.5713,450.689 19.5,449.5C 19.7072,453.552 21.7072,455.052 25.5,454C 26.0897,452.491 26.7564,450.991 27.5,449.5C 29.0308,455.466 26.6975,457.632 20.5,456C 19.9341,455.005 19.2674,454.172 18.5,453.5 Z"/></g>
<g><path style="opacity:1" fill="#575757" d="M 13.5,447.5 C 13.5,446.5 13.5,445.5 13.5,444.5C 16.1873,444.664 18.854,444.497 21.5,444C 17.4365,437.835 17.9365,437.335 23,442.5C 24.6667,441.167 26.3333,439.833 28,438.5C 28.6302,440.903 27.7969,442.737 25.5,444C 26.448,444.483 27.448,444.649 28.5,444.5C 28.5,445.5 28.5,446.5 28.5,447.5C 23.5,447.5 18.5,447.5 13.5,447.5 Z"/></g>
<g><path style="opacity:1" fill="#505050" d="M 20.5,458.5 C 27.9974,457.804 29.9974,460.637 26.5,467C 18.749,468.091 16.749,465.258 20.5,458.5 Z"/></g>
<g><path style="opacity:1" fill="#d4d4d4" d="M 21.5,460.5 C 25.1378,459.737 26.6378,461.07 26,464.5C 21.4155,466.413 19.9155,465.079 21.5,460.5 Z"/></g>
<g><path style="opacity:1" fill="#4b4b4b" d="M 15.5,472.5 C 15.3284,471.508 15.6618,470.842 16.5,470.5C 17.7348,470.279 18.7348,469.612 19.5,468.5C 22.1667,471.167 24.8333,471.167 27.5,468.5C 28.4287,469.689 28.762,471.022 28.5,472.5C 25.2123,472.073 22.2123,472.74 19.5,474.5C 18.4763,473.147 17.143,472.48 15.5,472.5 Z"/></g>
<g><path style="opacity:1" fill="#505050" d="M 17.5,483.5 C 14.9078,481.964 13.9078,479.631 14.5,476.5C 15.9779,477.97 17.3112,479.637 18.5,481.5C 19.711,479.578 21.0443,477.745 22.5,476C 27.9832,475.492 29.6498,477.825 27.5,483C 26.8333,483.667 26.1667,483.667 25.5,483C 26.9901,480.8 26.6568,478.966 24.5,477.5C 23.289,479.422 21.9557,481.255 20.5,483C 19.552,483.483 18.552,483.649 17.5,483.5 Z"/></g>
<g><path style="opacity:1" fill="#525252" d="M 20.5,490.5 C 21.8333,490.5 23.1667,490.5 24.5,490.5C 24.0949,497.94 25.0949,498.274 27.5,491.5C 28.7721,498.206 26.1054,500.206 19.5,497.5C 17.9139,494.784 18.2472,492.45 20.5,490.5 Z"/></g>
<g><path style="opacity:1" fill="#e1e1e1" d="M 20.5,492.5 C 22.3442,493.204 22.8442,494.537 22,496.5C 20.8118,495.437 20.3118,494.103 20.5,492.5 Z"/></g>
<g><path style="opacity:1" fill="#575757" d="M 13.5,509.5 C 13.5,508.5 13.5,507.5 13.5,506.5C 15.1667,506.5 16.8333,506.5 18.5,506.5C 18.329,501.506 20.6624,499.672 25.5,501C 28.1252,503.196 29.1252,506.03 28.5,509.5C 23.5,509.5 18.5,509.5 13.5,509.5 Z"/></g>
<g><path style="opacity:1" fill="#535353" d="M 19.5,519.5 C 19.5,518.833 19.1667,518.5 18.5,518.5C 18.7063,511.372 21.873,509.706 28,513.5C 28.7259,520.219 25.8925,522.219 19.5,519.5 Z"/></g>
<g><path style="opacity:1" fill="#e3e3e3" d="M 28.5,544.5 C 28.3059,542.088 26.9726,541.088 24.5,541.5C 23.5985,537.759 24.9319,535.759 28.5,535.5C 28.719,534.325 28.3857,533.325 27.5,532.5C 23.2746,534.242 18.9413,535.576 14.5,536.5C 14.5,537.833 14.5,539.167 14.5,540.5C 12.3442,536.177 13.6775,533.511 18.5,532.5C 19.2975,532.043 19.6309,531.376 19.5,530.5C 26.4207,533.077 29.2541,530.744 28,523.5C 23.5986,522.533 19.0986,522.2 14.5,522.5C 15.9133,521.065 17.58,520.065 19.5,519.5C 25.8925,522.219 28.7259,520.219 28,513.5C 21.873,509.706 18.7063,511.372 18.5,518.5C 17.1857,516.105 17.1857,513.605 18.5,511C 16.6183,510.802 14.9516,510.302 13.5,509.5C 18.5,509.5 23.5,509.5 28.5,509.5C 29.1252,506.03 28.1252,503.196 25.5,501C 20.6624,499.672 18.329,501.506 18.5,506.5C 16.8333,506.5 15.1667,506.5 13.5,506.5C 14.1834,504.824 15.5168,504.157 17.5,504.5C 17.8782,502.079 18.5448,499.746 19.5,497.5C 26.1054,500.206 28.7721,498.206 27.5,491.5C 25.0949,498.274 24.0949,497.94 24.5,490.5C 23.1667,490.5 21.8333,490.5 20.5,490.5C 21.6936,489.223 23.3603,488.556 25.5,488.5C 29.5671,487.553 31.5671,489.053 31.5,493C 31.2477,495.394 30.2477,497.394 28.5,499C 30.2477,500.606 31.2477,502.606 31.5,505C 31.1717,512.816 31.1717,520.649 31.5,528.5C 31.3333,530.833 31.1667,533.167 31,535.5C 29.7949,536.071 28.6283,536.738 27.5,537.5C 29.0314,538.613 30.0314,540.113 30.5,542C 30.3158,543.376 29.6491,544.209 28.5,544.5 Z"/></g>
<g><path style="opacity:1" fill="#d4d4d4" d="M 21.5,513.5 C 25.1378,512.737 26.6378,514.07 26,517.5C 21.4155,519.413 19.9155,518.079 21.5,513.5 Z"/></g>
<g><path style="opacity:1" fill="#d9d9d9" d="M 21.5,502.5 C 23.9124,502.244 25.5791,503.244 26.5,505.5C 24.604,506.466 22.604,506.799 20.5,506.5C 20.4326,505.041 20.7659,503.708 21.5,502.5 Z"/></g>
<g><path style="opacity:1" fill="#545454" d="M 14.5,522.5 C 19.0986,522.2 23.5986,522.533 28,523.5C 29.2541,530.744 26.4207,533.077 19.5,530.5C 18.962,528.883 18.6287,527.216 18.5,525.5C 16.8333,525.5 15.1667,525.5 13.5,525.5C 13.2627,524.209 13.596,523.209 14.5,522.5 Z"/></g>
<g><path style="opacity:1" fill="#d8d8d8" d="M 20.5,525.5 C 22.5,525.5 24.5,525.5 26.5,525.5C 26.9153,527.948 25.9153,529.281 23.5,529.5C 21.5323,528.9 20.5323,527.567 20.5,525.5 Z"/></g>
<g><path style="opacity:1" fill="#505050" d="M 28.5,544.5 C 23.8911,542.964 19.2244,541.63 14.5,540.5C 14.5,539.167 14.5,537.833 14.5,536.5C 18.9413,535.576 23.2746,534.242 27.5,532.5C 28.3857,533.325 28.719,534.325 28.5,535.5C 24.9319,535.759 23.5985,537.759 24.5,541.5C 26.9726,541.088 28.3059,542.088 28.5,544.5 Z"/></g>
<g><path style="opacity:1" fill="#d0d0d0" d="M 21.5,536.5 C 22.782,537.708 22.782,539.042 21.5,540.5C 16.3429,539.088 16.3429,537.754 21.5,536.5 Z"/></g>
</svg>
